<?xml version="1.0" ?><!DOCTYPE svg  PUBLIC '-//W3C//DTD SVG 1.1//EN'  'http://www.w3.org/Graphics/SVG/1.1/DTD/svg11.dtd'><svg enable-background="new 0 0 512 512" height="512px" id="Branding" version="1.1" viewBox="0 0 512 512" width="512px" xml:space="preserve" xmlns="http://www.w3.org/2000/svg" xmlns:xlink="http://www.w3.org/1999/xlink"><path d="M256,0c141.355,0,256,114.645,256,256S397.355,512,256,512S0,397.355,0,256S114.645,0,256,0  z" fill="#22FCAD" id="Background"/><g id="Branding_1_"><polygon fill="#E6E6E6" points="101.439,38.115 350.837,38.115 410.26,144.355 410.26,473.883 101.439,473.883  "/><polygon fill="#FFCC00" points="156.36,54.92 176.77,66.625 197.18,78.632 197.18,102.04 197.18,125.749 176.77,137.456    156.36,149.159 135.954,137.456 115.548,125.749 115.548,102.04 115.548,78.632 135.954,66.625  "/><rect fill="#669999" height="8.894" width="84.587" x="114.042" y="155.46"/><rect fill="#669999" height="8.89" width="104.346" x="114.042" y="176.77"/><rect fill="#669999" height="8.894" width="104.346" x="114.042" y="199.578"/><polygon fill="#CFCFCF" points="329.23,126.648 349.636,38.115 410.561,143.757  "/><rect fill="#8AB88A" height="166.264" width="298.313" x="38.117" y="307.619"/><polygon fill="#99CC99" points="187.272,421.967 112.845,364.645 38.117,307.619 187.272,307.619 336.732,307.619 262.004,364.645     "/><polygon fill="#FFCC00" points="57.624,444.774 62.427,447.473 67.527,450.477 67.527,456.18 67.527,462.18 62.427,464.883    57.624,467.883 52.519,464.883 47.418,462.18 47.418,456.18 47.418,450.477 52.519,447.473  "/><rect fill="#ABDAB3" height="8.891" width="208.231" x="72.929" y="451.678"/><g id="_328972296"><polygon fill="#FFCC99" points="420.163,107.142 388.352,105.941 404.26,64.226   "/><path d="M420.163,107.142l-31.812-1.201l1.201-3.301c1.502-1.5,3.899-3.902,6.004-4.502    c2.698-1.201,6,4.801,8.401,5.401c2.401,0.601,5.703-5.401,7.804-6.002c1.2-0.601,4.502,3.301,7.2,6.303L420.163,107.142z" fill="#FFCC99"/><polygon fill="#4D4D4D" points="400.355,74.13 404.26,64.226 407.857,74.13   "/><path d="M420.163,107.142v341.532c0,17.707-31.812,17.707-31.812,0V105.941c4.201-1.201,6.301-5.703,7.804-5.703    c1.799,0,4.502,5.703,8.104,5.703c3.598,0,6.603-7.203,8.1-5.703C413.561,101.439,416.561,104.14,420.163,107.142z" fill="#E6B800"/><path d="M398.854,102.339c1.502,1.801,3.306,3.603,5.406,3.603c2.1,0,3.899-2.101,5.401-3.902v324.127h-10.808    V102.339z" fill="#FFCC00"/><path d="M420.163,107.142v319.025h-10.502V102.04c1.201-1.5,2.101-2.701,2.698-1.801    C413.561,101.439,416.561,104.14,420.163,107.142z" fill="#E6B800"/><polygon fill="#CFA600" points="420.163,426.167 420.163,435.77 388.352,435.77 388.352,426.167   "/><path d="M420.163,435.77v12.904c0,18.008-31.812,17.707-31.812,0V435.77H420.163z" fill="#CC3300"/></g><rect fill="#3B9373" height="136.251" width="225.385" x="248.498" y="337.632"/><polygon fill="#FFCC00" points="291.113,354.138 301.318,359.841 311.222,365.544 311.222,377.247 311.222,388.954    301.318,394.652 291.113,400.355 281.209,394.652 271.004,388.954 271.004,377.247 271.004,365.544 281.209,359.841  "/><g><rect fill="#56AFAC" height="8.89" width="143.236" x="325.929" y="360.143"/><rect fill="#56AFAC" height="8.895" width="143.236" x="325.929" y="383.548"/><rect fill="#56AFAC" height="8.895" width="208.235" x="261.101" y="408.159"/><rect fill="#56AFAC" height="8.895" width="208.235" x="261.101" y="435.77"/></g><circle cx="460.678" cy="462.18" fill="#CC3300" r="6.301"/><circle cx="455.879" cy="462.18" fill="#FFCC00" r="6.301"/><path d="M473.883,328.628h-44.716V107.142c0-0.901,0-2.1-0.598-3.002l-15.908-43.215   c-1.201-3.301-4.502-5.703-8.401-5.703c-3.904,0-6.904,2.101-8.406,5.703l-9.004,23.408l-28.209-50.72   c-1.503-2.701-4.503-4.502-7.804-4.502H101.439c-5.104,0-9.004,4.203-9.004,9.004v260.5H38.117c-4.803,0-9.004,3.903-9.004,9.004   v166.264c0,4.804,4.201,9.004,9.004,9.004h435.766c4.804,0,9.004-4.2,9.004-9.004V337.632   C482.887,332.828,478.687,328.628,473.883,328.628z M473.883,473.883H410.26h-73.527h-88.234H101.439H38.117V307.619h63.322V38.115   h248.196h1.201l34.515,61.523l3.301,5.703l0.9-2.701l10.803-28.51l3.904-9.904l3.598,9.904l11.104,29.711l1.201,3.301v230.49h53.72   V473.883z" fill="#4E5A62"/></g></svg>