<?xml version="1.0" encoding="UTF-8" standalone="no"?>
<!-- Created with Inkscape (http://www.inkscape.org/) -->

<svg
   xmlns:dc="http://purl.org/dc/elements/1.1/"
   xmlns:cc="http://creativecommons.org/ns#"
   xmlns:rdf="http://www.w3.org/1999/02/22-rdf-syntax-ns#"
   xmlns:svg="http://www.w3.org/2000/svg"
   xmlns="http://www.w3.org/2000/svg"
   xmlns:sodipodi="http://sodipodi.sourceforge.net/DTD/sodipodi-0.dtd"
   xmlns:inkscape="http://www.inkscape.org/namespaces/inkscape"
   width="624.71442"
   height="325.74329"
   id="svg2"
   version="1.1"
   inkscape:version="0.48.5 r10040"
   sodipodi:docname="drawing.svg"
   inkscape:export-filename="C:\Users\Jakson\Google Drive\Projects\Clients\Sisu Land\Logo\sisu-land-logo-nosubtitle.png"
   inkscape:export-xdpi="576.34344"
   inkscape:export-ydpi="576.34344">
  <defs
     id="defs4" />
  <sodipodi:namedview
     id="base"
     pagecolor="#ffffff"
     bordercolor="#666666"
     borderopacity="1.0"
     inkscape:pageopacity="0.0"
     inkscape:pageshadow="2"
     inkscape:zoom="1.979899"
     inkscape:cx="410.80206"
     inkscape:cy="103.71596"
     inkscape:document-units="px"
     inkscape:current-layer="text3932"
     showgrid="false"
     inkscape:window-width="2560"
     inkscape:window-height="1388"
     inkscape:window-x="1912"
     inkscape:window-y="-8"
     inkscape:window-maximized="1"
     fit-margin-top="0"
     fit-margin-left="0"
     fit-margin-right="0"
     fit-margin-bottom="0"
     showguides="true"
     inkscape:guide-bbox="true" />
  <metadata
     id="metadata7">
    <rdf:RDF>
      <cc:Work
         rdf:about="">
        <dc:format>image/svg+xml</dc:format>
        <dc:type
           rdf:resource="http://purl.org/dc/dcmitype/StillImage" />
        <dc:title></dc:title>
      </cc:Work>
    </rdf:RDF>
  </metadata>
  <g
     inkscape:groupmode="layer"
     id="layer6"
     inkscape:label="mountain_bg"
     sodipodi:insensitive="true"
     transform="translate(-28.653484,-22.896589)">
    <path
       style="fill:#6d6d6d;fill-opacity:1;stroke:none"
       d="m 46.785714,221.3954 c 31.421896,-14.56287 74.294416,-81.73605 83.546046,-97.68384 9.25163,-15.94779 22.91857,26.77437 53.36965,28.75527 30.45109,1.9809 50.71023,-62.213487 72.5,-63.719369 13.50214,0.4972 15.65721,45.713829 41.13579,37.395399 14.58403,-4.7615 31.68761,25.92756 52.6628,25 -16.90151,12.12447 -39.20495,-12.37158 -45.01794,-14.18111 -8.59521,-2.40857 -17.19013,0.86073 -26.79315,-3.13507 -9.60302,-3.9958 -15.85886,-24.29582 -27.30874,-22.3013 -20.11555,3.50404 -35.56661,50.66975 -59.4516,53.54605 -23.88499,2.8763 -51.18495,-24.79175 -66.52266,-8.43401 -29.282641,31.2301 -48.420331,60.8276 -78.120196,64.75798 z"
       id="path3076"
       inkscape:connector-curvature="0"
       sodipodi:nodetypes="czzcscczszsc" />
    <path
       style="fill:#6d6d6d;fill-opacity:1;stroke:none"
       d="M 653.21429,305.42857 C 656.93626,301.61005 591.95434,210.59506 575,209.35714 c -11.386,2.93646 -11.94831,15.4839 -20.44578,15.88163 -31.36613,1.4681 -74.19422,-35.26132 -100.04411,-73.69475 -25.84989,-38.43343 -39.80135,-86.840132 -51.59912,-81.072121 -6.96319,-1.781931 -41.04875,40.153481 -76.9875,42.900471 15.5495,8.7922 68.83024,-26.534622 79.83105,-16.717003 7.71781,1.483859 25.19026,46.731083 44.65119,75.872733 19.46093,29.14166 91.49376,67.80209 104.05855,66.82905 12.5648,-0.97305 11.42858,-10.71429 24.10715,-10.71429 11.37328,-5.36203 53.04942,62.4742 74.64286,76.78571 z"
       id="path3096"
       inkscape:connector-curvature="0"
       sodipodi:nodetypes="ccszccczzcc" />
    <path
       style="fill:#6d6d6d;fill-opacity:1;stroke:none"
       d="m 289.28571,72.571428 c 5.32202,-3.21431 12.44791,-1.061965 16.78572,-4.285715 14.07786,-7.452731 24.74322,-39.430842 39.64286,-45.357142 19.1182,-1.374002 14.91241,41.872165 29.28571,62.678571 -10.80528,1.478384 -23.08692,-29.99443 -31.78571,-30.178571 -15.37287,0.317825 -24.365,16.587506 -35.35715,27.857143 -16.11902,7.341522 -19.19581,-3.522998 -34.46428,20.535716 4.97432,-21.911506 8.22236,-26.195405 15.89285,-31.250002 z"
       id="path3098"
       inkscape:connector-curvature="0"
       sodipodi:nodetypes="cccccccc" />
  </g>
  <g
     inkscape:groupmode="layer"
     id="layer2"
     inkscape:label="trees"
     transform="translate(-28.653484,-22.896589)">
    <path
       style="fill:#126a1f;fill-opacity:1;stroke:none"
       d="m 158.01673,41.275922 c -5.98842,8.09215 -9.60652,23.990424 -8.94761,20.805767 l 6.29866,-0.246398 c -2.39316,8.494065 -6.82806,14.025249 -11.45387,20.605612 3.34263,-0.629265 6.37393,-1.507583 11.43472,-0.762315 -4.28354,12.09352 -16.22848,18.506032 -15.72763,31.587972 11.05046,-0.97175 12.79164,-0.7086 13.20642,-0.26952 -3.8054,13.4265 -13.06912,14.96931 -14.55402,26.68237 3.80587,-0.59628 7.16225,-1.64203 12.66739,-0.53904 -5.03821,15.31706 -20.9997,21.07183 -21.02248,33.15082 l 11.72407,0.40428 c -2.89311,20.50419 -17.40293,24.6767 -17.65347,40.83211 8.0968,-1.35434 12.95588,-0.76604 17.51871,0 -1.7,22.69074 -16.48595,21.92793 -22.2353,47.83959 7.10952,-1.91237 14.27816,-3.78302 27.35617,-1.48235 -14.0377,26.47294 -25.74309,24.09058 -30.32087,39.75403 10.55081,-0.56236 13.04143,-4.72052 33.82462,1.75187 1.26772,8.23531 1.83766,16.85123 -0.80857,27.22141 4.20654,0.87376 8.79944,1.61872 17.24921,1.07807 -0.79842,-7.9821 -4.33961,-11.54529 0.80856,-29.10803 8.09419,-1.19243 11.98765,-4.26414 32.8813,0.26951 -7.09688,-19.6384 -22.95576,-22.16057 -30.05135,-40.56258 7.66933,-2.74376 17.62255,-2.30576 27.35616,0.94332 -4.27865,-20.49887 -19.97616,-25.80626 -21.02247,-47.97436 1.25544,-0.79105 3.37001,-1.41027 16.97968,0.26952 -2.34125,-20.96519 -10.9958,-13.55617 -18.32728,-41.23639 l 12.93691,-0.80855 c -0.10449,-13.78056 -21.29153,-20.97885 -21.02247,-32.8813 3.08096,-0.95987 1.951,-0.2293 10.64599,1.07807 -2.51551,-10.10696 -11.49947,-18.05776 -13.6107,-26.14333 1.40152,-1.30523 8.00644,-0.38044 14.2845,0.40428 -1.15627,-15.139608 -13.07018,-17.688391 -16.57541,-32.2075 l 11.72407,0.26952 c -4.1878,-6.491938 -10.85782,-13.636376 -11.85883,-19.809636 l 7.0075,0.943316 c -3.26963,-8.491262 -6.09559,-18.757224 -10.71231,-21.860138 z"
       id="path3868"
       inkscape:connector-curvature="0"
       sodipodi:nodetypes="cccccccccccccccccccccccccccccccccccc" />
    <path
       style="fill:#126a1f;fill-opacity:1;stroke:none"
       d="m 90.029135,157.43522 c 2.801062,3.78508 4.493411,11.22144 4.185212,9.73182 l -2.946173,-0.11525 c 1.119389,3.97307 3.193794,6.56026 5.357501,9.6382 -1.563502,-0.29435 -2.981382,-0.70517 -5.348546,-0.35657 2.003609,5.6567 7.590806,8.65612 7.356538,14.77515 -5.168811,-0.45453 -5.983241,-0.33145 -6.177254,-0.12607 1.779963,6.2802 6.113032,7.00184 6.807584,12.48058 -1.780177,-0.27891 -3.350113,-0.76806 -5.925117,-0.25214 2.356601,7.1645 9.82253,9.85626 9.83318,15.50617 l -5.483888,0.1891 c 1.353245,9.59075 8.140148,11.54242 8.257348,19.09905 -3.78725,-0.63348 -6.060063,-0.35831 -8.194315,0 0.795172,10.61351 7.711235,10.25672 10.400475,22.37679 -3.32545,-0.89451 -6.67855,-1.76949 -12.795738,-0.69336 6.566078,12.38261 12.041228,11.26827 14.182468,18.59479 -4.9351,-0.26305 -6.10008,-2.20801 -15.821333,0.81943 -0.592973,3.85203 -0.859559,7.88209 0.378201,12.73271 -1.967592,0.40869 -4.115903,0.75714 -8.068248,0.50426 0.373459,-3.7336 2.029837,-5.40027 -0.378202,-13.61517 -3.786024,-0.55775 -5.607175,-1.99453 -15.38009,0.12606 3.31954,-9.18578 10.737455,-10.36552 14.056396,-18.97299 -3.587291,-1.28338 -8.242876,-1.0785 -12.795736,0.44124 2.00133,-9.58827 9.343775,-12.07077 9.833185,-22.43982 -0.58724,-0.37001 -1.576315,-0.65965 -7.942185,0.12606 1.09512,-9.80638 5.14325,-6.34084 8.572506,-19.28815 l -6.051176,-0.3782 c 0.0489,-6.4458 9.95902,-9.81277 9.833167,-15.38009 -1.441111,-0.44898 -0.912573,-0.10726 -4.979612,0.50426 1.176611,-4.72749 5.378826,-8.44645 6.366343,-12.22844 -0.655556,-0.61052 -3.744982,-0.17795 -6.681513,0.18909 0.54084,-7.08149 6.11352,-8.27367 7.75308,-15.06493 l -5.483889,0.12607 c 1.958826,-3.03657 5.0787,-6.37836 5.546923,-9.26588 l -3.277731,0.44123 c 1.529357,-3.97175 2.851186,-8.77362 5.010639,-10.225 z"
       id="path3868-3"
       inkscape:connector-curvature="0"
       sodipodi:nodetypes="cccccccccccccccccccccccccccccccccccc" />
    <path
       style="fill:#126a1f;fill-opacity:1;stroke:none"
       d="m 546.19052,103.89664 c 4.53034,6.12184 7.26748,18.14912 6.76901,15.73988 l -4.76503,-0.1864 c 1.81046,6.42589 5.16553,10.61032 8.66503,15.58846 -2.52875,-0.47605 -4.82198,-1.14051 -8.65055,-0.5767 3.24057,9.14893 12.2771,14.0001 11.8982,23.89679 -8.35985,-0.73515 -9.67708,-0.53607 -9.99087,-0.2039 2.87885,10.15736 9.887,11.32452 11.01034,20.18563 -2.87919,-0.45109 -5.41835,-1.24222 -9.58307,-0.40779 3.81148,11.58759 15.8866,15.94116 15.90383,25.0791 l -8.86944,0.30584 c 2.18869,15.51174 13.16558,18.6683 13.35513,30.89012 -6.12536,-1.02457 -9.80133,-0.57952 -13.25318,0 1.28608,17.1659 12.47187,16.58882 16.82134,36.19139 -5.37846,-1.44674 -10.80164,-2.86191 -20.69535,-1.12142 10.61973,20.02718 19.47503,18.22489 22.9382,30.07453 -7.98185,-0.42543 -9.86604,-3.57114 -25.58885,1.32532 -0.95905,6.23014 -1.39021,12.74821 0.61169,20.59341 -3.18231,0.66101 -6.65691,1.22459 -13.04928,0.81558 0.60402,-6.03858 3.28298,-8.73419 -0.61169,-22.02067 -6.12338,-0.90209 -9.06884,-3.22588 -24.87521,0.20389 5.3689,-14.85676 17.36638,-16.76481 22.73431,-30.68621 -5.80197,-2.07571 -13.33173,-1.74435 -20.69536,0.71363 3.23686,-15.50771 15.11227,-19.52283 15.90383,-36.29334 -0.94977,-0.59844 -2.54947,-1.0669 -12.8454,0.20389 1.77119,-15.86048 8.31849,-10.25545 13.86487,-31.19596 l -9.78697,-0.61168 c 0.079,-10.42521 16.10737,-15.87082 15.90382,-24.87521 -2.33079,-0.72615 -1.47596,-0.17347 -8.05385,0.81558 1.90302,-7.64607 8.69952,-13.66097 10.2967,-19.77783 -1.06027,-0.98743 -6.05699,-0.28781 -10.80644,0.30584 0.87473,-11.45335 9.88779,-13.38154 12.53955,-24.36547 l -8.86944,0.20389 c 3.16814,-4.91125 8.21411,-10.31613 8.97139,-14.98629 l -5.30128,0.71363 c 2.47352,-6.42376 4.6114,-14.19012 8.10402,-16.53753 z"
       id="path3868-4"
       inkscape:connector-curvature="0"
       sodipodi:nodetypes="cccccccccccccccccccccccccccccccccccc" />
    <path
       style="fill:#126a1f;fill-opacity:1;stroke:none"
       d="m 605.23924,164.12728 c 3.52159,4.75872 5.64927,14.10796 5.2618,12.23517 l -3.70404,-0.1449 c 1.40734,4.99508 4.01535,8.24779 6.73564,12.11747 -1.96569,-0.37005 -3.7483,-0.88655 -6.72438,-0.44828 2.51901,7.11179 9.54343,10.88278 9.2489,18.57583 -6.49841,-0.57146 -7.52234,-0.41671 -7.76626,-0.1585 2.23783,7.89568 7.68552,8.80296 8.55873,15.69102 -2.2381,-0.35066 -4.21188,-0.96563 -7.44926,-0.317 2.9628,9.00746 12.34922,12.39164 12.36261,19.49489 l -6.89453,0.23775 c 1.70134,12.05783 10.23408,14.51154 10.38142,24.012 -4.76146,-0.79644 -7.61892,-0.45049 -10.30217,0 0.99971,13.34367 9.69483,12.89508 13.07583,28.13286 -4.18087,-1.1246 -8.3965,-2.22466 -16.08724,-0.87172 8.2551,15.56786 15.13865,14.16687 17.83069,23.37802 -6.20458,-0.33071 -7.66923,-2.77598 -19.89113,1.03022 -0.7455,4.84291 -1.08067,9.90964 0.47549,16.008 -2.47373,0.51383 -5.17466,0.95192 -10.14368,0.63398 0.46952,-4.69401 2.55198,-6.7894 -0.47549,-17.11746 -4.75992,-0.70123 -7.04954,-2.5076 -19.3364,0.15849 4.17344,-11.54869 13.49952,-13.03189 17.6722,-23.8535 -4.51008,-1.61352 -10.36323,-1.35594 -16.08725,0.55473 2.51614,-12.0547 11.74732,-15.1758 12.36262,-28.21212 -0.73829,-0.46519 -1.98179,-0.82933 -9.98519,0.1585 1.37681,-12.32893 6.46627,-7.97193 10.77766,-24.24975 l -7.60776,-0.47548 c 0.0615,-8.10389 12.52084,-12.33696 12.36261,-19.33639 -1.81181,-0.56447 -1.14731,-0.13485 -6.26055,0.63398 1.47929,-5.94357 6.76246,-10.61917 8.004,-15.37402 -0.82419,-0.76757 -4.70832,-0.22373 -8.40024,0.23774 0.67997,-8.9031 7.68614,-10.40196 9.74745,-18.94016 l -6.89453,0.1585 c 2.4627,-3.81769 6.38511,-8.0191 6.97378,-11.64939 l -4.12088,0.55473 c 1.92276,-4.99342 3.58461,-11.03049 6.29955,-12.85521 z"
       id="path3868-43"
       inkscape:connector-curvature="0"
       sodipodi:nodetypes="cccccccccccccccccccccccccccccccccccc" />
  </g>
  <g
     inkscape:groupmode="layer"
     id="layer3"
     inkscape:label="mountain"
     transform="translate(-28.653484,-22.896589)">
    <path
       style="fill:#6d6d6d;fill-opacity:1;stroke:none"
       d="m 28.653484,346.81491 c 3.797751,-9.84697 23.786044,-25.42209 31.543566,-38.41441 7.757523,-12.99232 7.793779,-16.35572 18.882893,-17.58558 11.089115,-1.22986 14.785126,-5.17829 28.252257,9.27328 13.46713,14.45158 28.87619,28.67081 52.22306,28.41934 23.34688,-0.25148 72.36895,-38.07142 92.52857,-37.27324 20.15961,0.79819 39.16614,9.0595 50.3063,10.49852 11.14018,1.43902 38.76549,-5.96343 55.74777,-2.65463 16.98227,3.3088 26.78862,17.6819 49.42942,18.63065 22.64082,0.94876 35.07067,-16.5281 75.83187,-21.56153 40.7612,-5.03342 55.72643,15.34476 77.47748,23.61566 21.75105,8.27089 48.29633,4.69998 62.96697,10.90694 14.67064,6.20695 26.13813,17.96998 26.13813,17.96998 0,0 -19.49805,-7.96168 -32.84084,-10.06609 -13.34278,-2.10439 -30.25021,2.30243 -50.3904,-1.64566 -20.14018,-3.9481 -47.55713,-25.43342 -74.54655,-25.77782 -26.98942,-0.34439 -49.43288,23.95865 -74.55858,27.06304 -25.1257,3.10439 -41.58156,0.94023 -67.36337,-7.66369 -25.78182,-8.60394 -66.60696,-34.02904 -100.63664,-21.50156 -34.02969,12.52747 -67.55871,45.27039 -98.31837,37.80177 -30.75965,-7.46862 -37.77364,-30.42922 -59.598157,-24.61535 -21.824514,5.81386 -61.651409,31.31287 -63.075379,24.58038 z"
       id="path3074"
       inkscape:connector-curvature="0"
       sodipodi:nodetypes="czzzzzzzzzzzczzzzzzzzc" />
  </g>
  <g
     inkscape:groupmode="layer"
     id="layer4"
     inkscape:label="text"
     transform="translate(-28.653484,-22.896589)">
    <g
       style="font-size:179.5019989px;font-style:normal;font-variant:normal;font-weight:normal;font-stretch:normal;line-height:125%;letter-spacing:0px;word-spacing:0px;fill:#2b4285;fill-opacity:1;stroke:#ffffff;stroke-width:3.88961077;stroke-miterlimit:4;stroke-opacity:1;font-family:Prototype;-inkscape-font-specification:Prototype"
       id="text3928">
      <path
         d="m 155.12158,256.15876 c -3.79807,-13.26396 -1.57767,-23.54792 6.6612,-30.85191 15.0169,8.82321 25.91439,14.25735 32.69251,16.30243 12.62117,-0.11684 19.54531,-3.27215 20.77244,-9.46593 0.29209,-4.96665 -3.56439,-9.75804 -11.56946,-14.37418 l -22.5254,-10.95593 c -14.08204,-7.47919 -21.38599,-18.02609 -21.91186,-31.64074 0.52587,-7.82974 3.22833,-14.87074 8.10739,-21.12303 4.87901,-6.25207 10.37158,-10.35689 16.47772,-12.31447 6.10606,-1.95734 13.36619,-2.67312 21.78039,-2.14737 15.42588,0.93504 28.95279,5.31741 40.58078,13.14712 0.46735,11.04369 -2.98011,20.65568 -10.3424,28.83602 -14.19897,-10.63447 -25.56391,-15.60115 -34.09486,-14.90007 -8.00519,-0.93481 -12.24148,1.92834 -12.70889,8.58945 -0.2922,3.79814 5.34645,8.7064 16.91596,14.72477 13.26391,5.37579 23.09503,11.54032 29.49337,18.49362 6.39817,6.95341 9.24671,15.39678 8.54563,25.33011 -0.935,13.4393 -7.18718,23.75247 -18.75655,30.93956 -7.36246,5.14198 -17.99701,7.27473 -31.90368,6.39826 -13.26402,-1.69452 -26.0021,-6.69042 -38.21429,-14.98771 z"
         style="fill:#2b4285;stroke:#ffffff;font-family:Helsinki;-inkscape-font-specification:Helsinki"
         id="path3099"
         inkscape:connector-curvature="0" />
      <path
         d="m 257.05557,268.34175 c 8.23885,4.26551 18.3183,4.70374 30.23838,1.31472 l 10.3424,-128.92942 c -10.28401,-2.97988 -19.86679,-3.41812 -28.74837,-1.31471 z"
         style="fill:#2b4285;stroke:#ffffff;font-family:Helsinki;-inkscape-font-specification:Helsinki"
         id="path3101"
         inkscape:connector-curvature="0" />
      <path
         d="m 313.58819,256.15876 c -3.79806,-13.26396 -1.57766,-23.54792 6.66121,-30.85191 15.0169,8.82321 25.91439,14.25735 32.6925,16.30243 12.62117,-0.11684 19.54531,-3.27215 20.77245,-9.46593 0.29209,-4.96665 -3.5644,-9.75804 -11.56947,-14.37418 l -22.52539,-10.95593 c -14.08205,-7.47919 -21.386,-18.02609 -21.91187,-31.64074 0.52587,-7.82974 3.22833,-14.87074 8.10739,-21.12303 4.87902,-6.25207 10.37158,-10.35689 16.47772,-12.31447 6.10607,-1.95734 13.36619,-2.67312 21.7804,-2.14737 15.42587,0.93504 28.95279,5.31741 40.58077,13.14712 0.46735,11.04369 -2.98011,20.65568 -10.3424,28.83602 -14.19896,-10.63447 -25.56391,-15.60115 -34.09486,-14.90007 -8.00518,-0.93481 -12.24147,1.92834 -12.70888,8.58945 -0.2922,3.79814 5.34644,8.7064 16.91596,14.72477 13.26391,5.37579 23.09502,11.54032 29.49337,18.49362 6.39817,6.95341 9.24671,15.39678 8.54563,25.33011 -0.93501,13.4393 -7.18719,23.75247 -18.75656,30.93956 -7.36246,5.14198 -17.99701,7.27473 -31.90368,6.39826 -13.26401,-1.69452 -26.0021,-6.69042 -38.21429,-14.98771 z"
         style="fill:#2b4285;stroke:#ffffff;font-family:Helsinki;-inkscape-font-specification:Helsinki"
         id="path3103"
         inkscape:connector-curvature="0" />
      <path
         d="m 422.53398,140.6394 c 10.51767,-2.04498 20.53868,-1.8989 30.06307,0.43824 -3.56436,46.3948 -5.21506,73.34637 -4.95208,80.85478 0.26291,7.50851 1.82595,13.2348 4.68914,17.17891 2.86311,3.94415 7.75675,5.91622 14.68095,5.9162 6.92409,2e-5 11.68626,-2.13273 14.28654,-6.39827 2.60013,-4.26547 4.25082,-9.8603 4.95208,-16.78448 0.7011,-6.9241 1.89895,-33.9341 3.59355,-81.03008 8.53093,-2.16184 18.23057,-2.22028 29.09895,-0.1753 -2.80482,62.46349 -5.93091,97.56626 -9.37828,105.30843 -3.44756,7.7422 -8.7064,13.99438 -15.77654,18.75655 -7.0703,4.76218 -16.33171,7.14327 -27.78424,7.14327 -11.45265,0 -21.48827,-2.87776 -30.10691,-8.63327 -8.61868,-5.75551 -14.16968,-14.09662 -16.65301,-25.02335 -2.48335,-10.92668 -1.38776,-43.44386 3.28678,-97.55163 z"
         style="fill:#2b4285;stroke:#ffffff;font-family:Helsinki;-inkscape-font-specification:Helsinki"
         id="path3105"
         inkscape:connector-curvature="0" />
    </g>
    <g
       style="font-size:54.89796066px;font-style:normal;font-variant:normal;font-weight:normal;font-stretch:normal;line-height:125%;letter-spacing:0px;word-spacing:0px;fill:#2b4285;fill-opacity:1;stroke:none;font-family:Prototype;-inkscape-font-specification:Prototype"
       id="text3932" />
  </g>
</svg>
